<?xml version="1.0" encoding="utf-8"?>
<!-- Generator: Adobe Illustrator 27.0.0, SVG Export Plug-In . SVG Version: 6.00 Build 0)  -->
<svg version="1.1" id="Layer_1" xmlns="http://www.w3.org/2000/svg" xmlns:xlink="http://www.w3.org/1999/xlink" x="0px" y="0px"
	 viewBox="0 0 241.5 241.5" style="enable-background:new 0 0 241.5 241.5;" xml:space="preserve">
<style type="text/css">
	.st0{fill:#2DD1AC;}
	.st1{fill:#FFFFFF;}
</style>
<path class="st0" d="M223.6,1.2H18.5C9.3,1.2,1.7,8.8,1.7,18v205.1c0,9.2,7.6,16.8,16.8,16.8h205.1c9.3,0,16.9-7.5,16.8-16.8V18
	C240.4,8.8,232.8,1.2,223.6,1.2z"/>
<polygon class="st1" points="64.5,113.5 89.7,84.4 77.5,84.4 54.2,112 54.2,84.5 42.8,84.5 42.8,145.3 54.2,145.3 54.2,116.9 
	77.6,145.3 90.9,145.3 "/>
<polygon class="st1" points="110.6,129.5 98.7,100.8 87.6,100.8 105.2,140.8 83.2,196.3 93.6,196.3 131.5,100.8 121.5,100.8 "/>
<path class="st1" d="M146.5,131.9v-23.4h9.8v-7.7h-9.8V91h-10.3v9.8v7.7v24.4c0,8.4,4.6,13.2,13.4,13.2c3.2,0,5.4-0.5,7-1.1v-8.2
	c-1.4,0.6-3,0.8-5,0.8C148.4,137.6,146.5,135.8,146.5,131.9z"/>
<path class="st1" d="M183,99.8c-12.7,0-22.1,9.2-22.1,23v0.7c-0.1,14.1,9.3,22.7,22.5,22.7c11.4,0,19-5.1,20.4-14.5h-10
	c-0.8,4.3-4,6.8-10.2,6.8c-7.7,0-11.9-4.8-12.3-13.2H204v-3C204,106.4,194,99.8,183,99.8z M171.5,118.5c1-7,5.2-11.1,11.4-11.1
	c6.4,0,10.3,3.4,10.8,11.1H171.5z"/>
</svg>
